<svg viewBox="0 0 522 344.4" xmlns="http://www.w3.org/2000/svg"><path d="m512 270.4v131.1c-34.6 38.2-95.9 71.2-170.8 89.9a547.17 547.17 0 0 1 -56.7 10.9 3.59 3.59 0 0 0 -1.1.2c-39.7 5.4-77.9 6.4-113.1 3.4a397.49 397.49 0 0 1 -62.3-10.1c-50.4-12.7-89-34.8-108-63.8v-86.8c33.5-57.7 128.3-108.5 245.2-124.7q13.35-1.8 26.4-3c3.1-.3 6.3-.5 9.4-.8 77.2-5.7 146.9 5.9 194.9 29.8 3.5 1.8 7 3.6 10.3 5.5a154.34 154.34 0 0 1 25.8 18.4z" fill="#142d4c" transform="translate(0 -167.7)"/><g fill="#2b6599"><path d="m200.7 125.69.1.01z"/><path d="m201.2 255.22v.05c-.05.06-.09.13-.15.19a3.73 3.73 0 0 0 .9-1.47 5 5 0 0 1 -.31.66 5.72 5.72 0 0 1 -.44.57z" transform="translate(0 -167.7)"/><path d="m200 293.79h.05l.22-.09h-.06z" transform="translate(0 -167.7)"/><path d="m231.92 297.82-.06.37c.17-1 .32-2 .44-3-.1.89-.24 1.81-.38 2.63z" transform="translate(0 -167.7)"/><path d="m231.43 300.34c-.19.89-.4 1.77-.64 2.64 0 .2-.1.4-.16.59q-.25.92-.54 1.8v.07c-.4 1.26-.86 2.49-1.35 3.7v.05a49.82 49.82 0 0 1 -2.43 5.1l-.17.31c-.29.51-.58 1-.88 1.52l-.21.33c-.5.8-1 1.58-1.54 2.33l-.63.88-.74 1c-.44.56-.88 1.12-1.34 1.65l-.49.54c-.41.46-.82.91-1.25 1.34l-.23.25a48.83 48.83 0 0 0 13-25.86c0 .16-.07.31-.1.47q-.15.63-.3 1.29z" transform="translate(0 -167.7)"/><path d="m200.8 293.4c-.17.09-.28.17-.44.26a2.43 2.43 0 0 0 .44-.26z" transform="translate(0 -167.7)"/><path d="m195.06 333-.13.07z" transform="translate(0 -167.7)"/><path d="m193.75 333.59a3.54 3.54 0 0 1 -.47.07 3.54 3.54 0 0 0 .47-.07z" transform="translate(0 -167.7)"/><path d="m194.45 333.35a4.14 4.14 0 0 1 -.59.21 4.14 4.14 0 0 0 .59-.21z" transform="translate(0 -167.7)"/><path d="m179.67 265.66a1.6 1.6 0 0 1 .43.43l20.9 24.51-20.8-24.5a1.83 1.83 0 0 0 -.53-.44z" transform="translate(0 -167.7)"/><path d="m184.76 249.77.17-.08z" transform="translate(0 -167.7)"/><path d="m213.91 332.2h.09.11c.77-.56 1.55-1.18 2.32-1.81a22.34 22.34 0 0 1 -2.52 1.81z" transform="translate(0 -167.7)"/><path d="m197.89 246.7h-.1c1.26 0 2.44.1 3.71.2 9.7 1.2 18.1 6.8 23.9 15.8-5.8-9-14.2-14.6-23.8-15.8a23.14 23.14 0 0 0 -3.71-.2z" transform="translate(0 -167.7)"/><path d="m171.7 285s0 0 0 0a2394518778188.86 2394518778188.86 0 0 0 0 .54s0 0 0 .08 0 .13 0 .19a5.52 5.52 0 0 1 -.16.54s0 .09-.05.13a3.8 3.8 0 0 1 -.74 1.14c0 .05-.1.11-.16.16a3 3 0 0 1 -.27.23 3.72 3.72 0 0 1 -.75.49 1.83 1.83 0 0 1 -.28.14 3.83 3.83 0 0 0 2.48-3.74v.1z" transform="translate(0 -167.7)"/><path d="m185 342h.72c-10-.76-16.17-2.67-18.23-4.11a19.43 19.43 0 0 0 6.24 2.38h.08l1.48.33.41.09 1 .2.95.17 1 .16.84.13 1.5.21.56.07c1.1.12 2.24.23 3.45.37z" transform="translate(0 -167.7)"/><path d="m208.98 167.19.03.01z"/><path d="m225.8 336.4s0 0 0 .06 0 0 0 0a.59.59 0 0 1 0 .13 1.39 1.39 0 0 1 -.06.13 0 0 0 0 0 0 0 5.49 5.49 0 0 1 -2.1 1.4h.09a38.41 38.41 0 0 1 -8.1 2.4 103.76 103.76 0 0 1 -19.2 1.7c-1.7.1-3.3 0-4.9 0l-5.82-.28h.14l5.58.27c-.9 0-1.8-.1-2.8-.1l-1.6-.08c2.84.19 6 .3 9.4.28 19.5-.2 29.5-4.2 29.5-5.9 0-.35-.42-.79-1.25-1.26.73.53 1.12.94 1.12 1.25z" transform="translate(0 -167.7)"/><path d="m180.14 252.4-.14.09z" transform="translate(0 -167.7)"/><path d="m166.76 121.01h-.04z"/><path d="m170.54 282.13a4 4 0 0 0 -1.24-.83 4 4 0 0 1 1.24.83z" transform="translate(0 -167.7)"/><path d="m216.81 326.29c.65-.58 1.28-1.18 1.9-1.8l-.15.15c-.56.57-1.16 1.12-1.75 1.65z" transform="translate(0 -167.7)"/><path d="m192.35 167.31 1.5.08z"/><path d="m191 165.43h-.06z"/><path d="m191.88 165.82-.08-.01z"/><path d="m168.64 288.79a.53.53 0 0 1 -.18 0 3.11 3.11 0 0 0 .44-.08h-.19z" transform="translate(0 -167.7)"/><path d="m215.65 327.28c.32-.26.63-.53.95-.81-.34.29-.6.53-.95.81z" transform="translate(0 -167.7)"/><path d="m232.3 295.2a55.53 55.53 0 0 0 .38-6.54 55.53 55.53 0 0 1 -.38 6.54z" transform="translate(0 -167.7)"/><path d="m226.3 293.3h-.45-.3-.05a3.83 3.83 0 0 1 -1.12-.4 4 4 0 0 1 -2-2.72h.08a4.18 4.18 0 0 1 -.07-.72 3.41 3.41 0 0 1 .1-1h-.05a3.7 3.7 0 0 0 -.15 1.16 4 4 0 0 0 3.9 3.8 3.83 3.83 0 0 0 2.75-1.19 3.73 3.73 0 0 1 -2.64 1.07z" transform="translate(0 -167.7)"/><path d="m225.85 293.28h.45a3.68 3.68 0 0 1 -.57-.06h-.18z" transform="translate(0 -167.7)"/><path d="m225.5 293.23h.14a4.16 4.16 0 0 1 -1.14-.39h-.12a3.83 3.83 0 0 0 1.12.39z" transform="translate(0 -167.7)"/><path d="m222.93 287.33a3.86 3.86 0 0 0 -.45 1h.05a3.88 3.88 0 0 1 .4-1z" transform="translate(0 -167.7)"/><path d="m224.38 292.83h.12a3.9 3.9 0 0 1 -2-2.72h-.08a4 4 0 0 0 1.96 2.72z" transform="translate(0 -167.7)"/><path d="m227.05 289.76a1.16 1.16 0 0 1 -.23.36 1 1 0 0 1 -.46.17h-.22-.29-.08a.89.89 0 0 0 .43.12.88.88 0 0 0 .85-.65z" transform="translate(0 -167.7)"/><path d="m225.85 290.27h.29-.07z" transform="translate(0 -167.7)"/><path d="m226.82 290.12a1.16 1.16 0 0 0 .23-.36 1.19 1.19 0 0 0 0-.26s0 0 0-.05a.88.88 0 0 1 -.81.83h.08a1 1 0 0 0 .5-.16z" transform="translate(0 -167.7)"/><path d="m225.85 290.27h.22a.87.87 0 0 1 -.76-.82s0 0 0 .05a.88.88 0 0 0 .47.78h.08z" transform="translate(0 -167.7)"/><path d="m222.53 288.32h-.05v.12h.05z" transform="translate(0 -167.7)"/><path d="m213.91 332.2a22.34 22.34 0 0 0 2.5-1.78l.89-.72c-1.1.9-2.2 1.7-3.39 2.5z" transform="translate(0 -167.7)"/><path d="m200.9 290.6a2 2 0 0 1 -.2 2.8h.1a2 2 0 0 0 .2-2.8z" transform="translate(0 -167.7)"/><path d="m199.56 293.88h.06a2.51 2.51 0 0 0 .44-.1h-.06a1.63 1.63 0 0 1 -.44.1z" transform="translate(0 -167.7)"/><path d="m200.7 293.4a4.2 4.2 0 0 1 -.48.3h.06.08c.16-.09.27-.17.44-.26h-.1z" transform="translate(0 -167.7)"/><path d="m191.4 342.3-5.58-.27 2.78.17c1 0 1.9.1 2.8.1z" transform="translate(0 -167.7)"/><path d="m185.68 342 5.82.28c1.6 0 3.2.1 4.9 0a103.76 103.76 0 0 0 19.2-1.7h-.28a107.21 107.21 0 0 1 -19 1.71c-3.91 0-7.44-.09-10.59-.33h-.73z" transform="translate(0 -167.7)"/><path d="m223.7 338.2h-.16a38.27 38.27 0 0 1 -8.22 2.39h.28a38.41 38.41 0 0 0 8.1-2.39z" transform="translate(0 -167.7)"/><path d="m223.61 338.2a5.49 5.49 0 0 0 2.1-1.4 0 0 0 0 1 0 0 1.39 1.39 0 0 0 .06-.13.59.59 0 0 0 0-.13s0 0 0 0c-.06.46-.81 1.08-2.25 1.74h.07z" transform="translate(0 -167.7)"/><path d="m200.92 337.48a33.46 33.46 0 0 0 8.08-2.58 34.93 34.93 0 0 1 -8.08 2.58z" transform="translate(0 -167.7)"/><path d="m209 334.89a40.29 40.29 0 0 0 4.89-2.7 38 38 0 0 1 -4.89 2.7z" transform="translate(0 -167.7)"/><path d="m197.16 256.41a4.21 4.21 0 0 0 1.08.18 4.05 4.05 0 0 1 -1.08-.18z" transform="translate(0 -167.7)"/><path d="m196.49 256.13h-.05a3.73 3.73 0 0 0 .68.28 3.53 3.53 0 0 1 -.63-.28z" transform="translate(0 -167.7)"/><path d="m201.15 255.27v-.05z" transform="translate(0 -167.7)"/><path d="m201.59 254.65a5 5 0 0 0 .31-.66 3.49 3.49 0 0 0 .2-1.29 3.9 3.9 0 0 0 -1.16-2.78 3.9 3.9 0 0 1 1.16 2.78 4.1 4.1 0 0 1 -.51 1.95z" transform="translate(0 -167.7)"/><path d="m199.7 249.1a4.12 4.12 0 0 1 1.24.82 4.12 4.12 0 0 0 -1.24-.82z" transform="translate(0 -167.7)"/><path d="m194.47 253.41a3.67 3.67 0 0 0 .58 1.48l.16.21a3.17 3.17 0 0 0 .29.35l.17.15a4.58 4.58 0 0 0 .43.34l.31.16h.05a3.87 3.87 0 0 1 -1.99-2.69z" transform="translate(0 -167.7)"/><path d="m192.35 335c.5.05 1 .07 1.5.08z" transform="translate(0 -167.7)"/><path d="m191.54 334.92.81.09 1.5.08h1.24c-1.09.01-2.33-.09-3.55-.17z" transform="translate(0 -167.7)"/><path d="m195.2 335.1h.64-.73z" transform="translate(0 -167.7)"/><path d="m226.27 314.29a49.82 49.82 0 0 0 2.43-5.1 49.82 49.82 0 0 1 -2.43 5.1z" transform="translate(0 -167.7)"/><path d="m225.22 316.12c.3-.5.59-1 .88-1.52-.29.51-.58 1.02-.88 1.52z" transform="translate(0 -167.7)"/><path d="m223.47 318.78c.53-.75 1-1.53 1.54-2.33-.5.8-1.01 1.55-1.54 2.33z" transform="translate(0 -167.7)"/><path d="m228.72 309.14c.49-1.21.95-2.44 1.35-3.7-.41 1.26-.86 2.49-1.35 3.7z" transform="translate(0 -167.7)"/><path d="m231.7 299c0-.16.07-.31.1-.47l.06-.36.06-.37c-.07.42-.14.82-.22 1.2z" transform="translate(0 -167.7)"/><path d="m230.79 303c.24-.87.45-1.75.64-2.64-.19.87-.43 1.75-.64 2.64z" transform="translate(0 -167.7)"/><path d="m230.09 305.37q.28-.89.54-1.8-.25.92-.54 1.8z" transform="translate(0 -167.7)"/><path d="m220.27 322.82.49-.54z" transform="translate(0 -167.7)"/><path d="m218.55 324.65.15-.15.09-.09.23-.25z" transform="translate(0 -167.7)"/><path d="m222.1 320.63.74-1z" transform="translate(0 -167.7)"/><path d="m216.57 326.5.2-.17z" transform="translate(0 -167.7)"/><path d="m194.4 252.74v.06a4.07 4.07 0 0 0 .06.61 4.9 4.9 0 0 1 -.06-.67z" transform="translate(0 -167.7)"/><path d="m192.94 333.69a3.79 3.79 0 0 1 -1.06-.17h-.08c.1 0 .2.08.3.1h.13a3.68 3.68 0 0 0 .58.06h.13z" transform="translate(0 -167.7)"/><path d="m191 333.13h-.06a3.69 3.69 0 0 0 .86.38h.08a3.87 3.87 0 0 1 -.88-.38z" transform="translate(0 -167.7)"/><path d="m193.76 330a.92.92 0 0 1 -.25.44.88.88 0 0 1 -.45.17h-.22-.29-.08a.89.89 0 0 0 .43.12.87.87 0 0 0 .86-.73z" transform="translate(0 -167.7)"/><path d="m189.24 328.62a3.76 3.76 0 0 1 3.61-2.81 3.85 3.85 0 0 0 -3.65 2.82z" transform="translate(0 -167.7)"/><path d="m189.16 330.42h-.1a4 4 0 0 0 1.88 2.72h.06a3.89 3.89 0 0 1 -1.84-2.72z" transform="translate(0 -167.7)"/><path d="m193.8 329.8a.78.78 0 0 1 0 .22.58.58 0 0 0 0-.22z" transform="translate(0 -167.7)"/><path d="m192.55 330.57h.29-.07z" transform="translate(0 -167.7)"/><path d="m193.51 330.42a.92.92 0 0 0 .25-.44.78.78 0 0 0 0-.22.88.88 0 0 1 -.81.83h.08a.88.88 0 0 0 .48-.17z" transform="translate(0 -167.7)"/><path d="m189.1 329.8a3.71 3.71 0 0 1 .11-1.06h-.09a3.71 3.71 0 0 0 -.12 1.06 4.07 4.07 0 0 0 .06.61h.1a4.2 4.2 0 0 1 -.06-.61z" transform="translate(0 -167.7)"/><path d="m192.55 330.57h.22a.87.87 0 0 1 -.76-.82s0 0 0 .05a.88.88 0 0 0 .47.78h.08z" transform="translate(0 -167.7)"/><path d="m189.21 328.74v-.12h-.09v.12z" transform="translate(0 -167.7)"/><path d="m201 255.46c.06-.06.1-.13.15-.19v-.05a5.72 5.72 0 0 0 .39-.57 4.1 4.1 0 0 0 .51-2 3.9 3.9 0 0 0 -1.16-2.78 4.12 4.12 0 0 0 -1.24-.82 4 4 0 0 0 -1.5-.3 3.85 3.85 0 0 0 -3.8 3.94 4.9 4.9 0 0 0 .07.67 3.87 3.87 0 0 0 2 2.72 3.53 3.53 0 0 0 .67.28 4.05 4.05 0 0 0 1.05.18h.09a3.83 3.83 0 0 0 2.77-1.08z" transform="translate(0 -167.7)"/><path d="m195.66 255.6-.17-.15z" transform="translate(0 -167.7)"/><path d="m195.2 255.1-.16-.21c.04.11.11.11.16.21z" transform="translate(0 -167.7)"/><path d="m192.23 333.63h-.13z" transform="translate(0 -167.7)"/><path d="m200.9 122.89.1.01-20.9-24.5z"/><path d="m184.76 249.77.16-.08a33.88 33.88 0 0 0 -4.77 2.71 35.53 35.53 0 0 1 4.61-2.63z" transform="translate(0 -167.7)"/><path d="m182.58 247.6-.44.22z" transform="translate(0 -167.7)"/><path d="m183.54 247.13.33-.15h-.1z" transform="translate(0 -167.7)"/><path d="m190.18 247.76h.09z" transform="translate(0 -167.7)"/><path d="m184.93 249.69a34 34 0 0 1 4.55-1.73 33 33 0 0 0 -4.58 1.73z" transform="translate(0 -167.7)"/><path d="m180.09 266.09a1.6 1.6 0 0 0 -.43-.43 2.23 2.23 0 0 0 -.57-.22 1.53 1.53 0 0 0 -.36 0 1.79 1.79 0 0 1 1.36.65z" transform="translate(0 -167.7)"/><path d="m200 293.79.21-.09a4.2 4.2 0 0 0 .48-.3 2 2 0 0 0 .2-2.8l-20.79-24.5a1.79 1.79 0 0 0 -1.44-.69 2.21 2.21 0 0 0 -1.25.5 2 2 0 0 0 -.2 2.8l20.79 24.49a1.92 1.92 0 0 0 1.45.69h.11a1.63 1.63 0 0 0 .44-.1z" transform="translate(0 -167.7)"/><path d="m166.76 288.71a4 4 0 0 0 1.11.18 3.48 3.48 0 0 1 -1.11-.18z" transform="translate(0 -167.7)"/><path d="m165.9 288.33h-.05a4.24 4.24 0 0 0 .87.38 3.88 3.88 0 0 1 -.82-.38z" transform="translate(0 -167.7)"/><path d="m164.16 116.12h-.01z"/><path d="m167.8 281a3.85 3.85 0 0 0 -3.65 2.82 4 4 0 0 1 3.65-2.82z" transform="translate(0 -167.7)"/><path d="m164.07 285.72a3.82 3.82 0 0 0 1.78 2.61h.05a3.89 3.89 0 0 1 -1.83-2.61z" transform="translate(0 -167.7)"/><path d="m168.6 288.8a3.51 3.51 0 0 1 -.65.09 2.42 2.42 0 0 0 .47-.05.53.53 0 0 0 .18 0z" transform="translate(0 -167.7)"/><path d="m169.46 288.5a4.13 4.13 0 0 1 -.79.29h.19l.36-.12a1.83 1.83 0 0 0 .28-.14z" transform="translate(0 -167.7)"/><path d="m171.67 285.27a2.45 2.45 0 0 0 0-.27 3.18 3.18 0 0 1 -.06.62s0-.05 0-.08a2.45 2.45 0 0 0 .06-.27z" transform="translate(0 -167.7)"/><path d="m171.38 286.48a3.8 3.8 0 0 1 -.74 1.14 3.8 3.8 0 0 0 .74-1.14z" transform="translate(0 -167.7)"/><path d="m167.41 285.81a1 1 0 0 0 .39.09.9.9 0 0 0 .68-.32.93.93 0 0 1 -.52.21h-.56z" transform="translate(0 -167.7)"/><path d="m171.43 286.35a5.52 5.52 0 0 0 .16-.54 3.68 3.68 0 0 1 -.16.54z" transform="translate(0 -167.7)"/><path d="m170.21 288a3 3 0 0 0 .27-.23 3 3 0 0 1 -.27.23z" transform="translate(0 -167.7)"/><path d="m171.7 285a.09.09 0 0 0 0 .05s0-.05 0-.05z" transform="translate(0 -167.7)"/><path d="m167.4 285.78h.37-.1z" transform="translate(0 -167.7)"/><path d="m168 285.79h-.08-.06z" transform="translate(0 -167.7)"/><path d="m167.67 285.77a.87.87 0 0 1 -.76-.82s0 0 0 .05a.89.89 0 0 0 .44.76z" transform="translate(0 -167.7)"/><path d="m164.15 283.82v.1s0-.06 0-.1z" transform="translate(0 -167.7)"/><path d="m168.48 285.58a.92.92 0 0 0 .22-.58s0 0 0-.05a.88.88 0 0 1 -.81.83h.11a.93.93 0 0 0 .48-.2z" transform="translate(0 -167.7)"/><path d="m164.15 116.12h.01"/><path d="m164 285a4.18 4.18 0 0 0 .07.72 4.18 4.18 0 0 1 -.07-.72z" transform="translate(0 -167.7)"/><path d="m164.12 283.94a3.71 3.71 0 0 0 -.12 1.06 3.67 3.67 0 0 1 .12-1.06z" transform="translate(0 -167.7)"/><path d="m180 252.49-.08.06z" transform="translate(0 -167.7)"/><path d="m170.54 282.13a3.8 3.8 0 0 0 -6.38 1.69s0 .07 0 .1a3.67 3.67 0 0 0 -.16 1.08 4.18 4.18 0 0 0 .07.72 3.89 3.89 0 0 0 2.69 3 3.48 3.48 0 0 0 1.07.18h.17a3.51 3.51 0 0 0 .65-.09h.07a4.13 4.13 0 0 0 .79-.29 3.72 3.72 0 0 0 .75-.49 3 3 0 0 0 .27-.23c.06 0 .11-.11.16-.16a3.8 3.8 0 0 0 .74-1.14s0-.09.05-.13a3.68 3.68 0 0 0 .16-.54c0-.06 0-.13 0-.19a3.18 3.18 0 0 0 .06-.62.09.09 0 0 1 0-.05v-.05a3.86 3.86 0 0 0 -1.16-2.79zm-3.2 3.63a.89.89 0 0 1 -.44-.76s0 0 0-.05a.87.87 0 0 0 .76.82h.1.06a.88.88 0 0 0 .81-.83s0 0 0 .05a.92.92 0 0 1 -.22.58.9.9 0 0 1 -.68.32 1 1 0 0 1 -.39-.09z" transform="translate(0 -167.7)"/><path d="m157.7 286.4a56.26 56.26 0 0 1 6.3-20.16 54.8 54.8 0 0 0 -6.3 20.16z" transform="translate(0 -167.7)"/><path d="m173.7 330.5c.31.25.61.48.92.71-.31-.21-.62-.46-.92-.71z" transform="translate(0 -167.7)"/><path d="m165.1 320.8a51.59 51.59 0 0 1 -7.81-27.44 51.34 51.34 0 0 0 7.81 27.44z" transform="translate(0 -167.7)"/><path d="m189.24 328.62v.12a3.71 3.71 0 0 0 -.11 1.06 4.2 4.2 0 0 0 .06.62 3.89 3.89 0 0 0 1.84 2.71 3.87 3.87 0 0 0 .88.39 3.79 3.79 0 0 0 1.06.17h.03.28a3.54 3.54 0 0 0 .47-.07h.11a4.14 4.14 0 0 0 .59-.21 4 4 0 0 0 .45-.26l.13-.07a3.94 3.94 0 0 0 1.09-1.1 4.06 4.06 0 0 0 .57-1.41 4.26 4.26 0 0 0 .08-.8 3.9 3.9 0 0 0 -3.9-3.9h-.05a3.76 3.76 0 0 0 -3.58 2.75zm3.23 2a.88.88 0 0 1 -.47-.78s0 0 0-.05a.87.87 0 0 0 .76.82h.07.17a.88.88 0 0 0 .81-.83.58.58 0 0 1 0 .18.87.87 0 0 1 -.86.72.89.89 0 0 1 -.48-.1z" transform="translate(0 -167.7)"/><path d="m164 266.21a47.94 47.94 0 0 1 8.77-11.61 48.31 48.31 0 0 0 -8.77 11.61z" transform="translate(0 -167.7)"/><path d="m173.7 330.5a42.66 42.66 0 0 1 -8.6-9.7 51.34 51.34 0 0 1 -7.81-27.44 56.37 56.37 0 0 1 .41-7 54.8 54.8 0 0 1 6.3-20.13 48.31 48.31 0 0 1 8.8-11.61 41.11 41.11 0 0 1 8.1-6.09l.62-.36c.19-.11.39-.2.59-.31l.44-.22 1-.47.26-.13-8.15-.4-.31.14-.82.4-.78.41-.6.32c-.38.21-.77.43-1.15.66l-.2.12a42 42 0 0 0 -7.16 5.55c-8.3 8-13.6 19.3-15.1 31.8a52.47 52.47 0 0 0 7.4 34.4 42.66 42.66 0 0 0 8.6 9.7z" transform="translate(0 -167.7)"/><path d="m172.65 330.77 1-.27a32.94 32.94 0 0 0 -5.34 1.7c.42-.19.87-.37 1.34-.55.99-.3 1.97-.6 3-.88z" transform="translate(0 -167.7)"/><path d="m174.62 331.21c-.31-.23-.61-.46-.92-.71.31.25.61.48.92.71z" transform="translate(0 -167.7)"/><path d="m190.8 243.4h-1.2a34.09 34.09 0 0 0 -13.78 3.11l8.08.39a42.9 42.9 0 0 1 7.47-2.52h.33a25.26 25.26 0 0 1 6.1-.6h1.2z" transform="translate(0 -167.7)"/><path d="m235.3 295.5c1.4-12.4-1.2-24.7-7.4-34.4s-15.5-15.9-25.9-17.1c-1.4-.1-2.8-.2-4.2-.2a34 34 0 0 0 -11.55 2.2c-.8.3-1.59.65-2.38 1l-.33.15-1 .47-.44.22c-.2.11-.4.2-.59.31l-.62.36a41.11 41.11 0 0 0 -8.1 6.09 47.94 47.94 0 0 0 -8.79 11.61 57.61 57.61 0 0 0 -6.73 27.12 51.59 51.59 0 0 0 7.81 27.44 42.66 42.66 0 0 0 8.6 9.7c.31.25.61.47.92.71-.31-.23-.61-.46-.92-.71l-1 .27c-1 .28-2 .58-2.9.91-.47.18-.92.36-1.34.55l-.35.15c-.32.15-.61.3-.9.46a10.67 10.67 0 0 0 -1.17.72 6.56 6.56 0 0 0 -1.52 1.47 3.39 3.39 0 0 0 -.7 2 3.43 3.43 0 0 0 .06.56l.06.21a1.93 1.93 0 0 0 .11.34 1.89 1.89 0 0 0 .09.21 2.21 2.21 0 0 0 .18.34 1 1 0 0 0 .1.17 5 5 0 0 0 .82.93c4.94 4.49 21.69 5.62 31.18 5.54 11.2-.1 32.5-2.1 32.4-8.9 0-3.4-5-5.4-11.5-6.7l-.89.72c-.77.63-1.55 1.25-2.32 1.81h-.11-.08a40.29 40.29 0 0 1 -4.89 2.7 33.46 33.46 0 0 1 -8.09 2.58 34.93 34.93 0 0 0 8.06-2.59 38 38 0 0 0 4.92-2.69c1.19-.8 2.29-1.6 3.39-2.5 9.51-7.63 16.31-19.83 18.01-34.23zm-9.9-32.8a48.84 48.84 0 0 1 7.28 25.9v.06a55.53 55.53 0 0 1 -.38 6.54c-.12 1-.27 2-.44 3l-.06.36a48.83 48.83 0 0 1 -13 25.86l-.09.09c-.62.62-1.25 1.22-1.9 1.8l-.2.17c-.32.28-.63.55-.95.81a33 33 0 0 1 -19.81 7.79c-.21 0-.42 0-.64 0h-1.35c-.5 0-1 0-1.5-.08l-.81-.09h-.14a31 31 0 0 1 -8.61-2.38 33 33 0 0 1 -3.18-1.64 32.35 32.35 0 0 1 -4.46-3.14 34.35 34.35 0 0 1 -2.73-2.54c-.44-.46-.87-.92-1.29-1.4a40.31 40.31 0 0 1 -3.53-4.7 48.11 48.11 0 0 1 -7.09-21.59c-.12-1.42-.18-2.87-.19-4.32s.05-2.91.16-4.38c.06-.74.13-1.47.22-2.21a51.9 51.9 0 0 1 3.8-14.6 48.49 48.49 0 0 1 2.82-5.63c.35-.6.72-1.19 1.09-1.77a44.9 44.9 0 0 1 5.06-6.46c.47-.49.94-1 1.43-1.44a37.13 37.13 0 0 1 5-4.15l.08-.06.14-.09a33.88 33.88 0 0 1 4.77-2.71 33 33 0 0 1 4.58-1.73l.7-.2h.09a31.21 31.21 0 0 1 7.48-1h.14a23.14 23.14 0 0 1 3.71.2c9.6 1.13 18 6.73 23.8 15.73zm.5 73.8c0 1.7-10 5.7-29.5 5.9-3.43 0-6.56-.09-9.4-.28-1.95-.13-3.76-.3-5.43-.5l-.56-.07-1.5-.21-.84-.13-1-.16-.95-.17-1-.2-.41-.09-1.48-.33h-.08c-3.7-.91-5.94-1.93-6.66-2.72a2.57 2.57 0 0 0 .42.34c2.06 1.44 8.2 3.35 18.23 4.11 3.15.24 6.68.37 10.59.33a107.21 107.21 0 0 0 19-1.71 38.27 38.27 0 0 0 8.22-2.39c1.44-.66 2.19-1.28 2.25-1.74 0 0 0 0 0-.06 0-.31-.39-.72-1.15-1.16.83.45 1.25.89 1.25 1.24z" transform="translate(0 -167.7)"/><path d="m226.2 285.5a3.82 3.82 0 0 0 -3.27 1.83 3.88 3.88 0 0 0 -.4 1v.12a3.41 3.41 0 0 0 -.1 1 4.18 4.18 0 0 0 .07.72 3.9 3.9 0 0 0 2 2.72 4.16 4.16 0 0 0 1.14.39h.09a3.68 3.68 0 0 0 .57.06 3.73 3.73 0 0 0 2.65-1.09 3.93 3.93 0 0 0 -2.75-6.71zm0 4.9a.89.89 0 0 1 -.43-.12.88.88 0 0 1 -.47-.78s0 0 0-.05a.87.87 0 0 0 .76.82h.07.14a.88.88 0 0 0 .81-.83s0 0 0 .05a1.19 1.19 0 0 1 0 .26.88.88 0 0 1 -.88.65z" transform="translate(0 -167.7)"/><path d="m175.28 340.59-1.48-.33z" transform="translate(0 -167.7)"/><path d="m167.06 337.52c.72.79 3 1.81 6.66 2.72a19.43 19.43 0 0 1 -6.24-2.38 2.57 2.57 0 0 1 -.42-.34z" transform="translate(0 -167.7)"/><path d="m181 341.55-1.5-.21z" transform="translate(0 -167.7)"/><path d="m164.4 338.83a1 1 0 0 1 -.1-.17 2.21 2.21 0 0 1 -.18-.34 1.89 1.89 0 0 1 -.09-.21 1.93 1.93 0 0 1 -.11-.34l-.06-.21a3.43 3.43 0 0 1 -.06-.56 3.39 3.39 0 0 1 .7-2 7.61 7.61 0 0 1 2.5-2.1c.35-.2.71-.4 1.11-.58l-8.07-.39a8.46 8.46 0 0 0 -4 3 .35.35 0 0 0 -.05.08 3.39 3.39 0 0 0 -.18.39l-.09.27a1.43 1.43 0 0 0 -.07.28 3.27 3.27 0 0 0 -.07.62c.1 5.5 13.9 7.6 25.1 8.2l8.2.4c-9.1-.49-19.9-2-23.7-5.45a5 5 0 0 1 -.78-.89z" transform="translate(0 -167.7)"/><path d="m178.67 341.21-1-.16z" transform="translate(0 -167.7)"/><path d="m176.71 340.88-1-.2z" transform="translate(0 -167.7)"/><path d="m185.82 342h-.14-.68c-1.2-.1-2.34-.21-3.42-.34 1.67.2 3.48.37 5.43.5l1.6.08z" transform="translate(0 -167.7)"/><path d="m164.49 335a6.56 6.56 0 0 1 1.49-1.42 10.67 10.67 0 0 1 1.17-.72h-.17a7.61 7.61 0 0 0 -2.49 2.14z" transform="translate(0 -167.7)"/><path d="m173.7 330.5-8.2-.4a32.15 32.15 0 0 0 -5.47 1.81l8.07.39.26-.1a32.94 32.94 0 0 1 5.34-1.7z" transform="translate(0 -167.7)"/></g><path d="m201.5 246.9c-1.27-.1-2.45-.19-3.71-.2a31.21 31.21 0 0 0 -7.48 1h-.09l-.7.2a34 34 0 0 0 -4.55 1.73l-.17.08a35.53 35.53 0 0 0 -4.62 2.63l-.15.09-.08.06a37.13 37.13 0 0 0 -5 4.15c-.49.47-1 .95-1.43 1.44a44.9 44.9 0 0 0 -5.06 6.46c-.37.58-.74 1.17-1.09 1.77a48.49 48.49 0 0 0 -2.87 5.69 51.9 51.9 0 0 0 -3.8 14.6c-.09.74-.16 1.47-.22 2.21-.11 1.47-.17 2.93-.16 4.38s.07 2.9.19 4.32a48.11 48.11 0 0 0 7.09 21.59 40.31 40.31 0 0 0 3.53 4.7c.42.48.85.94 1.29 1.4a34.35 34.35 0 0 0 2.73 2.54 32.35 32.35 0 0 0 4.46 3.14 33 33 0 0 0 3.18 1.64 31 31 0 0 0 8.61 2.38h.14c1.22.09 2.43.18 3.55.18h.73a33 33 0 0 0 19.81-7.79c.31-.25.61-.52.92-.78l.24-.21c.59-.53 1.17-1.08 1.74-1.64l.47-.49c.43-.43.84-.88 1.25-1.34l.49-.54c.46-.53.9-1.09 1.34-1.65l.74-1 .63-.88c.53-.75 1-1.53 1.54-2.33l.21-.33c.3-.5.59-1 .88-1.52l.17-.31a49.82 49.82 0 0 0 2.43-5.1v-.05c.49-1.21.94-2.44 1.35-3.7v-.07q.28-.89.54-1.8c.06-.19.11-.39.16-.59.24-.87.45-1.75.64-2.64q.15-.66.27-1.32c.08-.4.15-.8.22-1.2.14-.87.28-1.74.38-2.62a55.53 55.53 0 0 0 .38-6.54v-.06a48.84 48.84 0 0 0 -7.28-25.9c-5.74-8.98-14.14-14.58-23.84-15.78zm28.6 42.5a3.93 3.93 0 0 1 -1.15 2.81 3.83 3.83 0 0 1 -2.75 1.19 4 4 0 0 1 -3.9-3.8 3.7 3.7 0 0 1 .15-1.16v-.12a3.86 3.86 0 0 1 .45-1 3.82 3.82 0 0 1 3.27-1.83 3.9 3.9 0 0 1 3.93 3.91zm-29.1 1.2a2 2 0 0 1 -.2 2.8 2.43 2.43 0 0 1 -.44.26h-.08l-.22.09a2.51 2.51 0 0 1 -.44.1h-.17a1.92 1.92 0 0 1 -1.45-.69l-20.8-24.5a2 2 0 0 1 .2-2.8 2.21 2.21 0 0 1 1.25-.5 1.53 1.53 0 0 1 .36 0 2.23 2.23 0 0 1 .57.22 1.83 1.83 0 0 1 .53.44zm-2.8-34a4.21 4.21 0 0 1 -1.08-.18 3.73 3.73 0 0 1 -.68-.28l-.31-.16a4.58 4.58 0 0 1 -.43-.34l-.17-.15a3.17 3.17 0 0 1 -.29-.35c0-.07-.12-.14-.16-.21a3.67 3.67 0 0 1 -.58-1.48 4.07 4.07 0 0 1 -.06-.61v-.06a3.85 3.85 0 0 1 3.8-3.94 4 4 0 0 1 1.5.3 4.12 4.12 0 0 1 1.24.82 3.9 3.9 0 0 1 1.16 2.78 3.49 3.49 0 0 1 -.2 1.29 3.73 3.73 0 0 1 -.9 1.47 3.83 3.83 0 0 1 -2.7 1.14zm-6 77h-.13c-.1 0-.2-.07-.3-.1a3.69 3.69 0 0 1 -.86-.38 4 4 0 0 1 -1.91-3.32 3.71 3.71 0 0 1 .12-1.06v-.12a3.85 3.85 0 0 1 3.65-2.82h.1a3.9 3.9 0 0 1 3.9 3.9 4.26 4.26 0 0 1 -.08.8 4.06 4.06 0 0 1 -.57 1.41 3.94 3.94 0 0 1 -1.09 1.1l-.13.07a4 4 0 0 1 -.45.26 4.14 4.14 0 0 1 -.59.21h-.11a3.54 3.54 0 0 1 -.47.07c-.1 0-.19 0-.28 0h-.19a3.68 3.68 0 0 1 -.58.01zm-23-45-.36.12a3.11 3.11 0 0 1 -.44.08 2.42 2.42 0 0 1 -.47.05h-.12a4 4 0 0 1 -1.11-.18 4.24 4.24 0 0 1 -.87-.38 3.82 3.82 0 0 1 -1.78-2.61 4.18 4.18 0 0 1 -.05-.68 3.71 3.71 0 0 1 .12-1.06v-.1a3.85 3.85 0 0 1 3.68-2.84 3.87 3.87 0 0 1 2.74 1.13 4 4 0 0 1 -1.32 6.51z" fill="#fff" transform="translate(0 -167.7)"/><path d="m8.79 329.63h152.21v96.4h-152.21z" fill="#fff" transform="matrix(.29954039 -.95408362 .95408362 .29954039 -301.02 177.93)"/><path d="m70.6 324.6-5.8-1.8a4 4 0 0 1 -2.6-5l1.8-5.8a4 4 0 0 1 5-2.6l5.8 1.8a4 4 0 0 1 2.6 5l-1.8 5.8a4 4 0 0 1 -5 2.6z" fill="#fff" stroke="#161616" stroke-linejoin="round" stroke-width="2" transform="translate(0 -167.7)"/><path d="m83.2 153.4 34.3 10.6" fill="none" stroke="#161616" stroke-linejoin="round" stroke-width="2"/><path d="m64.1 346.5-5.8-1.8a4 4 0 0 1 -2.6-5l1.8-5.8a4 4 0 0 1 5-2.6l5.8 1.8a4 4 0 0 1 2.6 5l-1.8 5.8a3.93 3.93 0 0 1 -5 2.6z" fill="#fff" stroke="#161616" stroke-linejoin="round" stroke-width="2" transform="translate(0 -167.7)"/><path d="m76.8 175.4 34.2 10.5" fill="none" stroke="#161616" stroke-linejoin="round" stroke-width="2"/><path d="m57.8 369.5-5.8-1.8a4 4 0 0 1 -2.6-5l1.8-5.8a4 4 0 0 1 5-2.6l5.8 1.7a4 4 0 0 1 2.6 5l-1.8 5.8a4.06 4.06 0 0 1 -5 2.7z" fill="#fff" stroke="#161616" stroke-linejoin="round" stroke-width="2" transform="translate(0 -167.7)"/><path d="m70.5 198.3 34.2 10.6" fill="none" stroke="#161616" stroke-linejoin="round" stroke-width="2"/><circle cx="134.05" cy="95.65" fill="#ffe161" r="4.6"/><circle cx="91.05" cy="99.45" fill="#ffe161" r="7.7"/><circle cx="105.15" cy="111.05" fill="#ffe161" r="6.5"/><circle cx="509.5" cy="127.8" fill="#ffe161" r="4.6"/><circle cx="514.3" cy="105.7" fill="#ffe161" r="7.7"/><circle cx="496.6" cy="101.3" fill="#ffe161" r="6.5"/><circle cx="40.15" cy="105.95" fill="#142d4c" r="4.6"/><circle cx="44.95" cy="83.85" fill="#142d4c" r="7.7"/><circle cx="27.25" cy="79.45" fill="#142d4c" r="6.5"/><circle cx="475.1" cy="320.01" fill="#142d4c" r="4.6"/><circle cx="462.5" cy="291.51" fill="#142d4c" r="7.7"/><circle cx="476.6" cy="303.11" fill="#142d4c" r="6.5"/><circle cx="106.7" cy="318.97" fill="#ffe161" r="4.6"/><circle cx="123.2" cy="292.53" fill="#ffe161" r="7.7"/><circle cx="121.52" cy="310.71" fill="#ffe161" r="6.5"/><path d="m357.8 280.6 116.2-102.8 22.8-176.3h-214.7l-37.4 172.2-125.5 106.9z" fill="#161616" stroke="#161616" stroke-linecap="round" stroke-linejoin="round" stroke-width="3"/><path d="m256.9 159.9 30.7-141.6h196.1l-18.4 142.1z" fill="#fff"/><path d="m268.6 186.2-.1.3-11.2 10h-23.2l11.8-10.3z" fill="#282828"/><path d="m268.6 186.2h-22.7" fill="#282828"/><path d="m298.1 186.2-.1.3-11.3 10h-23.1l11.8-10.3z" fill="#282828"/><path d="m298.1 186.2h-22.7" fill="#282828"/><path d="m327.5 186.2v.3l-11.3 10h-23.1l11.8-10.3z" fill="#282828"/><path d="m327.5 186.2h-22.6" fill="#282828"/><path d="m356.4 186.2-.1.3-11.2 10h-23.2l11.8-10.3z" fill="#282828"/><path d="m356.4 186.2h-22.7" fill="#282828"/><path d="m252.3 201.9-.1.3-11.2 9.9h-23.2l11.8-10.2z" fill="#282828"/><path d="m252.3 201.9h-22.7" fill="#282828"/><path d="m281.8 201.9-.1.3-11.3 9.9h-23.1l11.8-10.2z" fill="#282828"/><path d="m281.8 201.9h-22.7" fill="#282828"/><path d="m311.2 201.9v.3l-11.3 9.9h-23.1l11.8-10.2z" fill="#282828"/><path d="m311.2 201.9h-22.6" fill="#282828"/><path d="m340.1 201.9-.1.3-11.2 9.9h-23.2l11.8-10.2z" fill="#282828"/><path d="m340.1 201.9h-22.7" fill="#282828"/><path d="m386.9 186.2-.1.3-11.3 10h-23.1l11.8-10.3z" fill="#282828"/><path d="m386.9 186.2h-22.7" fill="#282828"/><path d="m416.3 186.2v.3l-11.3 10h-23.1l11.8-10.3z" fill="#282828"/><path d="m416.3 186.2h-22.6" fill="#282828"/><path d="m445.8 186.2v.3l-11.3 10h-23.2l11.9-10.3z" fill="#282828"/><path d="m445.8 186.2h-22.6" fill="#282828"/><path d="m370.6 201.9-.1.3-11.3 9.9h-23.1l11.8-10.2z" fill="#282828"/><path d="m370.6 201.9h-22.7" fill="#282828"/><path d="m400 201.9v.3l-11.3 9.9h-23.1l11.8-10.2z" fill="#282828"/><path d="m400 201.9h-22.6" fill="#282828"/><path d="m429.5 201.9v.3l-11.3 9.9h-23.2l11.9-10.2z" fill="#282828"/><path d="m429.5 201.9h-22.6" fill="#282828"/><path d="m235.4 216.3-.1.3-11.2 9.9h-23.2l11.8-10.2z" fill="#282828"/><path d="m235.4 216.3h-22.7" fill="#282828"/><path d="m264.9 216.3-.1.3-11.3 9.9h-23.1l11.8-10.2z" fill="#282828"/><path d="m264.9 216.3h-22.7" fill="#282828"/><path d="m294.3 216.3v.3l-11.3 9.9h-23.1l11.8-10.2z" fill="#282828"/><path d="m294.3 216.3h-22.6" fill="#282828"/><path d="m323.2 216.3-.1.3-11.2 9.9h-23.2l11.8-10.2z" fill="#282828"/><path d="m323.2 216.3h-22.7" fill="#282828"/><path d="m219.1 232-.1.3-11.2 9.9h-23.2l11.8-10.2z" fill="#282828"/><path d="m219.1 232h-22.7" fill="#282828"/><path d="m248.6 232-.1.3-11.3 9.9h-23.1l11.8-10.2z" fill="#282828"/><path d="m248.6 232h-22.7" fill="#282828"/><path d="m278 232v.3l-11.3 9.9h-23.1l11.8-10.2z" fill="#282828"/><path d="m278 232h-22.6" fill="#282828"/><path d="m306.9 232-.1.3-11.2 9.9h-23.2l11.8-10.2z" fill="#282828"/><path d="m306.9 232h-22.7" fill="#282828"/><path d="m353.7 216.3-.1.3-11.3 9.9h-23.1l11.8-10.2z" fill="#282828"/><path d="m353.7 216.3h-22.7" fill="#282828"/><path d="m383.1 216.3v.3l-11.3 9.9h-23.1l11.8-10.2z" fill="#282828"/><path d="m383.1 216.3h-22.6" fill="#282828"/><path d="m412.6 216.3v.3l-11.3 9.9h-23.2l11.9-10.2z" fill="#282828"/><path d="m412.6 216.3h-22.6" fill="#282828"/><path d="m337.4 232-.1.3-11.3 9.9h-23.1l11.8-10.2z" fill="#282828"/><path d="m337.4 232h-22.7" fill="#282828"/><path d="m366.8 232v.3l-11.3 9.9h-23.1l11.8-10.2z" fill="#282828"/><path d="m366.8 232h-22.6" fill="#282828"/><path d="m396.3 232v.3l-11.3 9.9h-23.2l11.9-10.2z" fill="#282828"/><path d="m396.3 232h-22.6" fill="#282828"/><path d="m309.5 248.3-.1.6-24.7 21.8h-50.8l25.9-22.4z" fill="#282828"/><path d="m291.8 379.8a1.7 1.7 0 0 1 -.6.6l-.8.4-5.4 3.1-10.6 6.1-5.3 3-.6.3a.76.76 0 0 1 -.4.2 10.91 10.91 0 0 0 -1.1.6 20.26 20.26 0 0 0 -5.9 5.4l-.6.9-5.4 8.4-.6 1-7.3 11.4-1.4 2.2a59.77 59.77 0 0 0 -4.2 7.9l-.2.5-2.8 6.5-.1.1a6.53 6.53 0 0 0 -.5 2 7.79 7.79 0 0 0 .4 2.1 5.1 5.1 0 0 0 6.3 2.9l20.3-6.2a16 16 0 0 0 2.3-1 10 10 0 0 0 2.7-2.3l2.4-2.9 4.3-5.1a2.78 2.78 0 0 1 4.8 1.4l.4 2.5a2.37 2.37 0 0 1 -.6 2.3l-2.3 2.6-1.4 1.6-6.2 7-1.2 1.3a2.65 2.65 0 0 1 -.6.5l-1.6 1-5.7 3.5-9.8 6.2c0 .1-.1 0-.2.1a81.16 81.16 0 0 1 -16.3 6.4c-.5.1-1.1.3-1.6.4a11.63 11.63 0 0 1 -1.8.4 81.74 81.74 0 0 1 -8.4 1.4l-5.3.6-5.9.8a17.48 17.48 0 0 0 -10.2 5.1l-32.4 32.7-6.1 6.1h-72.6l16.3-16.3 47.5-47.5 6.2-6.2a35.41 35.41 0 0 0 6.3-8.5 9.29 9.29 0 0 1 .5-1v-.1c.1-.3.3-.6.4-.9.5-1.2 1-2.4 1.4-3.6a52.46 52.46 0 0 1 5.8-11.9l5.4-8.3a39.79 39.79 0 0 1 3.5-4.4l5.6-6.1a11 11 0 0 0 1.4-2.1l.3-.5 7.5-13.8.9-1.9.6-1.3.3-.7a65.53 65.53 0 0 1 7.6-13.7c.8-1.1 1.6-2.3 2.5-3.4l1-1.3 1.8-2.3 2.3-3a2.65 2.65 0 0 1 1.9-1.1l1.8-.1h.7a2.68 2.68 0 0 1 2 4.1l-4.2 7.1-.3.4-1.9 3.3-3.2 5.8-.2.4-3.3 8.1-1.5 4-1.4 3.7-2 5.5-.5 1.3a3 3 0 0 0 1.4 3.7l.8.5.8.5a1.31 1.31 0 0 0 1.8-.5l2.3-5.4 2.7-6.2 1.7-4v-.1l1.8-4.2.2-.5.6-1.4a33.35 33.35 0 0 1 4.8-7.7 19 19 0 0 1 1.9-2.1l1.2-1.2 8.6-8.5 7.3-7.3a3.1 3.1 0 0 1 1.8-.9h3a2.73 2.73 0 0 1 2.7 3.6 2.66 2.66 0 0 1 -.6 1l-3.7 4-4.9 5.3-5.1 5.4-.6.7-2.2 2.3a27.5 27.5 0 0 0 -4.9 7.3 20 20 0 0 0 -1 2.6l-.6 1.6-3.5 10-.1.2-3.5 10.1a1.7 1.7 0 0 0 -.1.7.85.85 0 0 0 .8.7l1.3.6c.4.5 1 .3 1.2-.3l3.4-6.5 2.4-4.6 2-3.8 2.4-4.7c.1-.2.3-.5.4-.7.4-.6.7-1.2 1.1-1.8a43.45 43.45 0 0 1 3.3-4.2l1.8-1.8c1.1-1 2.4-2.1 3.6-3 1-.7 2-1.4 3.1-2.1l5.7-3.3.4-.2 14.8-8.7.6-.3a3.4 3.4 0 0 1 1-.1l1.9.2a2.67 2.67 0 0 1 2.3 3.7 3.05 3.05 0 0 1 -1 1.3l-5.2 3.6-.8.5-12.3 8.4a1.47 1.47 0 0 0 -.6.5c-.6.4-1.2.9-1.7 1.3a42.64 42.64 0 0 0 -4.3 4.2 40.06 40.06 0 0 0 -5.8 8.9l-.6 1.4-2.4 5.4-4.4 9.9c0 .1-.1.2-.1.3a3.22 3.22 0 0 0 .1 1.7 2.73 2.73 0 0 0 1.3 1.5 1.69 1.69 0 0 0 .5.2 2.71 2.71 0 0 0 2.9-1.1l6.4-9.2.8-1.1 1.6-2.3.1-.2 3.5-5c.1-.1.1-.2.2-.3a19.33 19.33 0 0 1 8-6.4l.3-.1 1.6-.6 4.3-1.7 1.5-.6 6.2-2.5 6.1-2.5 5.3-2.1.8-.4a6.64 6.64 0 0 1 4.6-.2l.6.1c1.7.7 2 2 1.5 2.8z" fill="#ffceb6" transform="translate(0 -167.7)"/><path d="m288.9 381c-1.3.4-2.1-2.7-.8-3.1s2.5.1 2.7 1-.6 1.9-1.9 2.1z" fill="#385170" transform="translate(0 -167.7)"/><path d="m279.9 435c-1.2 1.8-5.6-1.1-4.5-2.9s3.1-2.6 4.3-1.8c1.4.7 1.5 2.8.2 4.7z" fill="#385170" transform="translate(0 -167.7)"/><path d="m269.5 366.1c-1.7.8-3.7-3.5-1.9-4.3s3.6-.5 4.1.6-.4 2.8-2.2 3.7z" fill="#385170" transform="translate(0 -167.7)"/><path d="m246.6 356.6c-1.5 1.5-5-2.2-3.6-3.7s3.5-1.9 4.5-.9.6 3.1-.9 4.6z" fill="#385170" transform="translate(0 -167.7)"/><path d="m221.3 358.5c-1.2 1.8-5.4-1.2-4.3-3s3.2-2.5 4.2-1.7c1.4.8 1.4 2.9.1 4.7z" fill="#385170" transform="translate(0 -167.7)"/><path d="m394.1 406.2-.5 1-3.1 6.5a75.78 75.78 0 0 1 -4.5 8.4c-.5.9-1.1 1.8-1.6 2.7-.2.4-.5.7-.7 1.1-1.2 1.9-2.5 3.7-3.8 5.5l-5 6.7-7.2 9.8a6.34 6.34 0 0 0 -1.2 2.1l-3 7.7a39.84 39.84 0 0 1 -2.4 5.1l-5 8.7a44.17 44.17 0 0 1 -4.6 6.7 5.72 5.72 0 0 1 -.7.8 6.47 6.47 0 0 1 -.8.9c-.7.8-1.4 1.4-2.1 2.2a33 33 0 0 0 -5.2 6.5c-.6 1-1.1 1.9-1.6 2.9a37.06 37.06 0 0 0 -1.9 4.6l-5.3 16h-53.8l3.2-9.5 9.8-29.2a17.44 17.44 0 0 0 0-11.5l-2-5.6-1.9-5.1c-.3-.9-.7-1.9-1-2.8a96.81 96.81 0 0 1 -2.7-10.6 76.14 76.14 0 0 1 -1.4-15.8s0-.2.1-.2l.5-5.7.2-2.5.2-1.5.1-1.5.1-.6.1-1.2.7-7.1a2.35 2.35 0 0 1 .2-.8l.5-1.2 2.2-5.4.1-.2 3.1-7.8.4-1.1a2.73 2.73 0 0 1 .9-1.2 2 2 0 0 1 .8-.4l2.3-.7a2.82 2.82 0 0 1 3.6 1.6 2.56 2.56 0 0 1 0 2.1l-3.3 7.7-.8 1.8a9 9 0 0 0 -.8 3.6 8.58 8.58 0 0 0 .2 2.3l.3 1.8.9 5.3 1.2 6.9 1.2 6.9a5.39 5.39 0 0 0 .9 2.2 5.69 5.69 0 0 0 4.6 2.2 4.16 4.16 0 0 0 3.2-1.4 3.17 3.17 0 0 0 .5-.6l5-6a65.32 65.32 0 0 0 5.2-7.4l1.2-2 6.1-10.3 3.2-5.4.7-1.2 2.8-4.8a16.57 16.57 0 0 0 1.9-4.3 17.62 17.62 0 0 0 .7-6l.1-1.7.1-2 .2-4.6.3-5.2v-.3l.6-10.3.1-2a1.71 1.71 0 0 1 1.4-1.6 1.5 1.5 0 0 1 1.5.5l.4.4a6.27 6.27 0 0 1 1.6 2.7 5.77 5.77 0 0 1 .3 1.4l.3 3.1.5 5.5v.3l.8 9.6.4 5.1.1 1 .3 3.5v.7a19.23 19.23 0 0 1 -1.4 7.8c-.3.7-.6 1.4-.9 2l-.3.5-3.8 7.1-4 7.5-.6 1.1-1.6 3a2.76 2.76 0 0 0 .7 3.5 2.72 2.72 0 0 0 3.5-.2l.2-.2 5-6.1 2.3-2.8 4.3-5.4c.6-.7 1.1-1.4 1.6-2.1a29 29 0 0 0 3.1-5.4c0-.1.1-.2.1-.3a31.6 31.6 0 0 0 1.6-4.3c0-.1 0-.1.1-.2a34.88 34.88 0 0 0 1.2-5.4l.6-4.2.2-1 1.4-9.2.7-4.7.1-.7.3-2c.3-2.5 3.8-3.3 5-1.1l1.1 1.7a2.3 2.3 0 0 1 .4 1.4v.3l-.3 5.1-.4 6-.3 1.3-.4 6.9-.3 4.6a34.34 34.34 0 0 1 -.8 5.6c0 .1-.1.3-.1.4a29.11 29.11 0 0 1 -1.6 5 42.28 42.28 0 0 1 -2.3 4.8c-.4.7-.9 1.4-1.4 2.2l-2.4 3.3-3.8 5.2-6.9 9.5a.93.93 0 0 0 .2 1.3l1.1.9a1.5 1.5 0 0 0 1.9-.1l7.4-7.7 8.7-9 .1-.1c.7-.8 1.4-1.5 2-2.3a22 22 0 0 0 1.7-2.5 7.46 7.46 0 0 0 .7-1.2 27.17 27.17 0 0 0 1.6-3.5l2.4-6.4 1.6-4.2 2.1-5.8 1.5-3.9.1-.3.8-2.1a2.7 2.7 0 0 1 3.3-1.7 2.4 2.4 0 0 1 1.8 1.5l.8 1.9.2.4.2.3a2.8 2.8 0 0 1 .2 2l-2.4 7.3-.5 1.7-1 3v.1l-1.8 5.4-1.8 5.5a28.92 28.92 0 0 1 -1.8 4.4c-.1.1-.1.2-.2.3a35.33 35.33 0 0 1 -3.8 5.7l-15.1 18.2a1.26 1.26 0 0 0 .4 1.9l1.5 1a3.06 3.06 0 0 0 4-.5l4.5-5.1 10.6-11.8 1-1.1a.52.52 0 0 0 .2-.4l1.3-2.2 3.7-5.9 2.7-4.3 2.3-3.7a2.76 2.76 0 0 1 4.9.4v.1l.6 1.6a2.88 2.88 0 0 1 .4 2.6z" fill="#ffceb6" transform="translate(0 -167.7)"/><path d="m336.7 355c.3 1.3 3.3.6 3.1-.7s-1.2-2.2-2.1-2-1.3 1.4-1 2.7z" fill="#385170" transform="translate(0 -167.7)"/><path d="m292.6 387.2c-1.1 1.9 3.5 4.5 4.6 2.6s1-4-.3-4.7-3.2.3-4.3 2.1z" fill="#385170" transform="translate(0 -167.7)"/><path d="m358.8 365.6c.1 1.9 4.7 1.7 4.6-.2s-1.2-3.5-2.6-3.4c-1.1.1-2 1.6-2 3.6z" fill="#385170" transform="translate(0 -167.7)"/><path d="m377.7 381.8c-.6 2 4.3 3.5 4.9 1.5s.1-4-1.3-4.5c-1.4-.3-3.1 1-3.6 3z" fill="#385170" transform="translate(0 -167.7)"/><path d="m387.3 405.2c-1 2 3.6 4.4 4.6 2.5s.9-3.9-.4-4.7-3.2.3-4.2 2.2z" fill="#385170" transform="translate(0 -167.7)"/><path d="m299.9 47.9 157.1-.4" fill="none" stroke="#161616" stroke-linecap="round" stroke-linejoin="round" stroke-width="4"/><path d="m290.9 77.3h121.4" fill="none" stroke="#161616" stroke-linecap="round" stroke-linejoin="round" stroke-width="4"/><path d="m287.5 106.3 158.3-2" fill="none" stroke="#161616" stroke-linecap="round" stroke-linejoin="round" stroke-width="4"/><path d="m275.2 135.3 105 1" fill="none" stroke="#161616" stroke-linecap="round" stroke-linejoin="round" stroke-width="4"/></svg>